<svg width="25" height="18" viewBox="0 0 25 18" fill="none" xmlns="http://www.w3.org/2000/svg">
<path d="M12.4125 0.202148C6.81589 0.202148 2.03635 3.6961 0.0999146 8.62807C2.03635 13.5601 6.81589 17.054 12.4125 17.054C18.0092 17.054 22.7887 13.5601 24.7252 8.62807C22.7887 3.6961 18.0092 0.202148 12.4125 0.202148ZM12.4125 14.2454C9.32318 14.2454 6.81589 11.7288 6.81589 8.62807C6.81589 5.52733 9.32318 3.01079 12.4125 3.01079C15.5019 3.01079 18.0092 5.52733 18.0092 8.62807C18.0092 11.7288 15.5019 14.2454 12.4125 14.2454ZM12.4125 5.2577C10.5544 5.2577 9.05455 6.76314 9.05455 8.62807C9.05455 10.493 10.5544 11.9984 12.4125 11.9984C14.2706 11.9984 15.7705 10.493 15.7705 8.62807C15.7705 6.76314 14.2706 5.2577 12.4125 5.2577Z" fill="#473379"/>
</svg>
