<svg   style="filter: drop-shadow(0px 5px 2px rgba(106, 62, 227, 0.3));" width="28" height="28" viewBox="0 0 28 28" fill="none" xmlns="http://www.w3.org/2000/svg">
<g opacity="0.5" clip-path="url(#clip0_554:1171)">
<path d="M14.4126 5.20117C8.81595 5.20117 4.03641 8.69512 2.09998 13.6271C4.03641 18.5591 8.81595 22.053 14.4126 22.053C20.0092 22.053 24.7888 18.5591 26.7252 13.6271C24.7888 8.69512 20.0092 5.20117 14.4126 5.20117ZM14.4126 19.2444C11.3232 19.2444 8.81595 16.7278 8.81595 13.6271C8.81595 10.5264 11.3232 8.00981 14.4126 8.00981C17.5019 8.00981 20.0092 10.5264 20.0092 13.6271C20.0092 16.7278 17.5019 19.2444 14.4126 19.2444ZM14.4126 10.2567C12.5545 10.2567 11.0546 11.7622 11.0546 13.6271C11.0546 15.492 12.5545 16.9975 14.4126 16.9975C16.2707 16.9975 17.7706 15.492 17.7706 13.6271C17.7706 11.7622 16.2707 10.2567 14.4126 10.2567Z" fill="#473379"/>
</g>
<defs>
<clipPath id="clip0_554:1171">
<rect width="26.8639" height="26.963" fill="white" transform="translate(0.980591 0.146484)"/>
</clipPath>
</defs>
</svg>
